<svg width="76" height="76" viewBox="0 0 76 76" fill="none" xmlns="http://www.w3.org/2000/svg">
<path d="M15.8326 12.667H60.166C61.0058 12.667 61.8113 13.0006 62.4051 13.5945C62.999 14.1883 63.3326 14.9938 63.3326 15.8336V31.667C63.3326 32.5068 62.999 33.3123 62.4051 33.9061C61.8113 34.5 61.0058 34.8336 60.166 34.8336H37.9994C37.1594 34.8336 36.354 35.1673 35.7602 35.7611C35.1663 36.355 34.8326 37.1604 34.8326 38.0004V60.167C34.8326 61.0068 34.499 61.8123 33.9052 62.4061C33.3113 63 32.5058 63.3336 31.666 63.3336H15.8326C14.9928 63.3336 14.1874 63 13.5935 62.4061C12.9996 61.8123 12.666 61.0068 12.666 60.167V15.8336C12.666 14.9938 12.9996 14.1883 13.5935 13.5945C14.1874 13.0006 14.9928 12.667 15.8326 12.667Z" stroke="#159EEC" stroke-width="3.5" stroke-linecap="round" stroke-linejoin="round"/>
<path d="M12.666 25.333H18.9994" stroke="#159EEC" stroke-width="3.5" stroke-linecap="round" stroke-linejoin="round"/>
<path d="M12.666 38H22.166" stroke="#159EEC" stroke-width="3.5" stroke-linecap="round" stroke-linejoin="round"/>
<path d="M12.666 50.667H18.9994" stroke="#159EEC" stroke-width="3.5" stroke-linecap="round" stroke-linejoin="round"/>
<path d="M25.334 12.667V19.0004" stroke="#159EEC" stroke-width="3.5" stroke-linecap="round" stroke-linejoin="round"/>
<path d="M38 12.667V22.167" stroke="#159EEC" stroke-width="3.5" stroke-linecap="round" stroke-linejoin="round"/>
<path d="M50.666 12.667V19.0004" stroke="#159EEC" stroke-width="3.5" stroke-linecap="round" stroke-linejoin="round"/>
</svg>
