<svg width="76" height="76" viewBox="0 0 76 76" fill="none" xmlns="http://www.w3.org/2000/svg">
<path d="M18.9994 25.3336C22.4971 25.3336 25.3326 22.4981 25.3326 19.0004C25.3326 15.5025 22.4971 12.667 18.9994 12.667C15.5015 12.667 12.666 15.5025 12.666 19.0004C12.666 22.4981 15.5015 25.3336 18.9994 25.3336Z" stroke="#159EEC" stroke-width="3.5" stroke-linecap="round" stroke-linejoin="round"/>
<path d="M56.9994 63.3336C60.4972 63.3336 63.3326 60.4981 63.3326 57.0004C63.3326 53.5025 60.4972 50.667 56.9994 50.667C53.5015 50.667 50.666 53.5025 50.666 57.0004C50.666 60.4981 53.5015 63.3336 56.9994 63.3336Z" stroke="#159EEC" stroke-width="3.5" stroke-linecap="round" stroke-linejoin="round"/>
<path d="M34.834 19H50.6674C52.347 19 53.9579 19.6673 55.1457 20.8549C56.3334 22.0427 57.0006 23.6536 57.0006 25.3334V50.6666" stroke="#159EEC" stroke-width="3.5" stroke-linecap="round" stroke-linejoin="round"/>
<path d="M44.334 28.5L34.834 19L44.334 9.5" stroke="#159EEC" stroke-width="3.5" stroke-linecap="round" stroke-linejoin="round"/>
<path d="M41.1666 56.9996H25.3334C23.6536 56.9996 22.0427 56.3325 20.8549 55.1447C19.6673 53.9569 19 52.346 19 50.6664V25.333" stroke="#159EEC" stroke-width="3.5" stroke-linecap="round" stroke-linejoin="round"/>
<path d="M31.666 47.5L41.166 57L31.666 66.5" stroke="#159EEC" stroke-width="3.5" stroke-linecap="round" stroke-linejoin="round"/>
</svg>
