<svg width="76" height="76" viewBox="0 0 76 76" fill="none" xmlns="http://www.w3.org/2000/svg">
<path d="M56.8301 12.6665H19.7775C14.6616 12.6665 10.5143 16.9199 10.5143 22.1666V53.8332C10.5143 59.0799 14.6616 63.3332 19.7775 63.3332H56.8301C61.946 63.3332 66.0933 59.0799 66.0933 53.8332V22.1666C66.0933 16.9199 61.946 12.6665 56.8301 12.6665Z" stroke="#159EEC" stroke-width="3.5" stroke-linecap="round" stroke-linejoin="round"/>
<path d="M29.0413 38.0001C32.4519 38.0001 35.2168 35.1645 35.2168 31.6668C35.2168 28.169 32.4519 25.3334 29.0413 25.3334C25.6307 25.3334 22.8659 28.169 22.8659 31.6668C22.8659 35.1645 25.6307 38.0001 29.0413 38.0001Z" stroke="#159EEC" stroke-width="3.5" stroke-linecap="round" stroke-linejoin="round"/>
<path d="M47.5677 25.3334H53.7432" stroke="#159EEC" stroke-width="3.5" stroke-linecap="round" stroke-linejoin="round"/>
<path d="M47.5677 38H53.7432" stroke="#159EEC" stroke-width="3.5" stroke-linecap="round" stroke-linejoin="round"/>
<path d="M22.8659 50.6666H53.7431" stroke="#159EEC" stroke-width="3.5" stroke-linecap="round" stroke-linejoin="round"/>
</svg>
