<svg width="76" height="76" viewBox="0 0 76 76" fill="none" xmlns="http://www.w3.org/2000/svg">
<path d="M22.1662 31.6666L37.9996 12.6665L53.8328 31.6666" stroke="#159EEC" stroke-width="3.5" stroke-linecap="round" stroke-linejoin="round"/>
<path d="M66.5 31.6666L60.1666 56.9999C59.8706 58.815 59.0747 60.4428 57.9174 61.6C56.7602 62.7573 55.315 63.3706 53.8334 63.3332H22.1666C20.685 63.3706 19.2398 62.7573 18.0826 61.6C16.9253 60.4428 16.1294 58.815 15.8334 56.9999L9.5 31.6666H66.5Z" stroke="#159EEC" stroke-width="3.5" stroke-linecap="round" stroke-linejoin="round"/>
<path d="M37.9996 53.8332C41.4973 53.8332 44.3328 50.9976 44.3328 47.4999C44.3328 44.0021 41.4973 41.1666 37.9996 41.1666C34.5017 41.1666 31.6662 44.0021 31.6662 47.4999C31.6662 50.9976 34.5017 53.8332 37.9996 53.8332Z" stroke="#159EEC" stroke-width="3.5" stroke-linecap="round" stroke-linejoin="round"/>
</svg>
