<svg width="76" height="76" viewBox="0 0 76 76" fill="none" xmlns="http://www.w3.org/2000/svg">
<path d="M31.1222 29.0443C29.351 27.2725 27.0939 26.0657 24.6368 25.5767C22.1796 25.0876 19.6325 25.3383 17.3178 26.2968C15.003 27.2554 13.0245 28.8789 11.6325 30.962C10.2405 33.0451 9.49756 35.4943 9.49756 37.9996C9.49756 40.505 10.2405 42.9541 11.6325 45.0373C13.0245 47.1204 15.003 48.744 17.3178 49.7025C19.6325 50.6611 22.1796 50.9117 24.6368 50.4226C27.0939 49.9336 29.351 48.7269 31.1222 46.955C33.933 44.406 36.2627 41.3728 38.0002 37.9996C39.7379 34.6265 42.0676 31.5932 44.8782 29.0443C46.6495 27.2725 48.9066 26.0657 51.3637 25.5767C53.821 25.0876 56.368 25.3383 58.6828 26.2968C60.9975 27.2554 62.976 28.8789 64.368 30.962C65.76 33.0451 66.5029 35.4943 66.5029 37.9996C66.5029 40.505 65.76 42.9541 64.368 45.0373C62.976 47.1204 60.9975 48.744 58.6828 49.7025C56.368 50.6611 53.821 50.9117 51.3637 50.4226C48.9066 49.9336 46.6495 48.7269 44.8782 46.955C42.0676 44.406 39.7379 41.3728 38.0002 37.9996C36.2627 34.6265 33.933 31.5932 31.1222 29.0443Z" stroke="#159EEC" stroke-width="3.5" stroke-linecap="round" stroke-linejoin="round"/>
</svg>
