<svg width="76" height="76" viewBox="0 0 76 76" fill="none" xmlns="http://www.w3.org/2000/svg">
<path d="M31.6673 10.1332C26.7136 11.2816 22.1575 13.7343 18.4714 17.2371C14.7853 20.7399 12.1034 25.1651 10.704 30.0537C9.30461 34.9424 9.23864 40.1163 10.5129 45.039C11.7872 49.9617 14.3553 54.4539 17.9509 58.0495C21.5466 61.6451 26.0387 64.2132 30.9615 65.4876C35.8841 66.7618 41.0582 66.6958 45.9468 65.2965C50.8353 63.897 55.2606 61.2152 58.7633 57.529C62.2661 53.843 64.7189 49.2868 65.8672 44.3333C65.8672 43.4933 65.5336 42.6879 64.9397 42.094C64.3458 41.5002 63.5405 41.1665 62.7005 41.1665H41.1673C39.4876 41.1665 37.8766 40.4993 36.6889 39.3115C35.5012 38.1238 34.8339 36.5129 34.8339 34.8333V12.6665C34.7946 12.2914 34.6811 11.9277 34.5002 11.5967C34.3193 11.2657 34.0743 10.9739 33.7798 10.7383C33.4852 10.5026 33.1469 10.3278 32.7842 10.2239C32.4216 10.1201 32.0419 10.0892 31.6673 10.1332Z" stroke="#159EEC" stroke-width="3.5" stroke-linecap="round" stroke-linejoin="round"/>
<path d="M47.5 11.083C51.5208 12.4988 55.1727 14.7985 58.187 17.8127C61.2012 20.8269 63.5009 24.479 64.9166 28.4996H50.6666C49.8268 28.4996 49.0214 28.166 48.4275 27.5722C47.8336 26.9783 47.5 26.1728 47.5 25.333V11.083Z" stroke="#159EEC" stroke-width="3.5" stroke-linecap="round" stroke-linejoin="round"/>
</svg>
