<svg width="69" height="62" viewBox="0 0 69 62" fill="none" xmlns="http://www.w3.org/2000/svg">
<path d="M48.4812 2.64807L59 13.1663L15.6973 56.4666C14.3025 57.8614 12.4107 58.645 10.4379 58.645C8.46533 58.645 6.57342 57.8614 5.17853 56.4666C3.78364 55.0718 3 53.18 3 51.2075C3 49.2349 3.78364 47.3431 5.17853 45.9484L48.4812 2.64807Z" stroke="#159EEC" stroke-width="5" stroke-linecap="round" stroke-linejoin="round"/>
<path d="M27.4424 23.6845H48.4801" stroke="#159EEC" stroke-width="5" stroke-linecap="round" stroke-linejoin="round"/>
<path d="M59 41.2148L64.2594 46.8248C65.152 47.837 65.7335 49.0853 65.9345 50.4198C66.1352 51.7542 65.9466 53.1184 65.3914 54.3485C64.8361 55.5784 63.9378 56.6222 62.804 57.3543C61.6704 58.0864 60.3494 58.4758 59 58.4758C57.6504 58.4758 56.3295 58.0864 55.1958 57.3543C54.062 56.6222 53.1637 55.5784 52.6084 54.3485C52.0532 53.1184 51.8646 51.7542 52.0653 50.4198C52.2662 49.0853 52.8478 47.837 53.7405 46.8248L59 41.2148Z" stroke="#159EEC" stroke-width="5" stroke-linecap="round" stroke-linejoin="round"/>
</svg>
