<svg width="76" height="76" viewBox="0 0 76 76" fill="none" xmlns="http://www.w3.org/2000/svg">
<path d="M22.1672 56.9998C18.2162 56.9998 14.4269 55.4985 11.633 52.826C8.83911 50.1537 7.26953 46.5292 7.26953 42.7498C7.26953 38.9704 8.83911 35.3459 11.633 32.6735C14.4269 30.0012 18.2162 28.4998 22.1672 28.4998C23.1004 24.3426 25.8303 20.6892 29.7565 18.3433C31.7005 17.1819 33.8796 16.3763 36.1695 15.9728C38.4595 15.5693 40.8152 15.5756 43.1024 15.9914C45.3896 16.4074 47.5634 17.2245 49.4997 18.3965C51.4359 19.5684 53.0968 21.0721 54.3873 22.8218C55.6779 24.5714 56.573 26.5326 57.0212 28.5936C57.4696 30.6544 57.4626 32.7747 57.0006 34.8332H60.1672C63.1068 34.8332 65.9259 36.0009 68.0043 38.0793C70.0829 40.1579 71.2506 42.977 71.2506 45.9164C71.2506 48.856 70.0829 51.675 68.0043 53.7535C65.9259 55.8321 63.1068 56.9998 60.1672 56.9998H57.0006" stroke="#159EEC" stroke-width="3.5" stroke-linecap="round" stroke-linejoin="round"/>
<path d="M41.1674 44.333L34.834 56.9996H44.334L38.0006 69.6664" stroke="#159EEC" stroke-width="3.5" stroke-linecap="round" stroke-linejoin="round"/>
</svg>
