<svg width="36" height="56" viewBox="0 0 36 56" fill="none" xmlns="http://www.w3.org/2000/svg">
<path d="M8.9189 55.7449C13.8421 55.7449 17.8378 51.6385 17.8378 46.5788V37.4127H8.9189C3.99567 37.4127 0 41.5191 0 46.5788C0 51.6385 3.99567 55.7449 8.9189 55.7449Z" fill="#0ACF83"/>
<path d="M0 28.2464C0 23.1867 3.99567 19.0802 8.9189 19.0802H17.8378V37.4124H8.9189C3.99567 37.4124 0 33.3061 0 28.2464Z" fill="#A259FF"/>
<path d="M0 9.91387C0 4.85416 3.99567 0.747681 8.9189 0.747681H17.8378V19.0799H8.9189C3.99567 19.0799 0 14.9736 0 9.91387Z" fill="#F24E1E"/>
<path d="M17.8378 0.747681H26.7567C31.68 0.747681 35.6756 4.85416 35.6756 9.91387C35.6756 14.9736 31.68 19.0799 26.7567 19.0799H17.8378V0.747681Z" fill="#FF7262"/>
<path d="M35.6756 28.2464C35.6756 33.3061 31.68 37.4124 26.7567 37.4124C21.8335 37.4124 17.8378 33.3061 17.8378 28.2464C17.8378 23.1867 21.8335 19.0802 26.7567 19.0802C31.68 19.0802 35.6756 23.1867 35.6756 28.2464Z" fill="#1ABCFE"/>
</svg>
