<svg width="56" height="52" viewBox="0 0 56 52" fill="none" xmlns="http://www.w3.org/2000/svg">
<path fill-rule="evenodd" clip-rule="evenodd" d="M11.9581 18.8534L28.2925 51.522L0.837402 18.8534H11.9581Z" fill="#EA6C00"/>
<path fill-rule="evenodd" clip-rule="evenodd" d="M44.6308 18.8534L28.2964 51.522L55.7515 18.8534H44.6308Z" fill="#EA6C00"/>
<path fill-rule="evenodd" clip-rule="evenodd" d="M11.9571 18.8534H44.6257L28.2913 51.522L11.9571 18.8534Z" fill="#FDAD00"/>
<path fill-rule="evenodd" clip-rule="evenodd" d="M28.2913 0.747559L12.8167 2.4189L11.9571 18.8525L28.2913 0.747559Z" fill="#FDD231"/>
<path fill-rule="evenodd" clip-rule="evenodd" d="M28.2923 0.747559L43.767 2.4189L44.6267 18.8525L28.2923 0.747559Z" fill="#FDD231"/>
<path fill-rule="evenodd" clip-rule="evenodd" d="M55.7512 18.8547L43.7708 2.42035L44.6305 18.8547H55.7512Z" fill="#FDAD00"/>
<path fill-rule="evenodd" clip-rule="evenodd" d="M0.837402 18.8547L12.8178 2.42035L11.9581 18.8547H0.837402Z" fill="#FDAD00"/>
<path fill-rule="evenodd" clip-rule="evenodd" d="M28.2913 0.747559L11.9571 18.8525H44.6257L28.2913 0.747559Z" fill="#FEEEB7"/>
</svg>
