<svg width="52" height="50" viewBox="0 0 52 50" fill="none" xmlns="http://www.w3.org/2000/svg">
<path d="M2.96478 2.84058H49.0331V47.65H2.96478V2.84058Z" fill="#210B00"/>
<path d="M2.96554 2.84122H49.0339V47.6508H2.96554V2.84122ZM0.871582 49.7447H51.128V0.747375H0.871582V49.7447ZM33.7894 18.2106C33.7894 18.0431 33.8522 17.9592 34.0407 17.9592H37.3284C37.4958 17.9592 37.5797 18.022 37.5797 18.2106V34.7314C37.5797 34.8988 37.5378 34.9827 37.3284 34.9827H34.0826C33.8733 34.9827 33.8103 34.878 33.8103 34.7106V18.2106H33.7894ZM33.5592 13.4574C33.5592 12.1172 34.5013 11.3216 35.6951 11.3216C36.9724 11.3216 37.831 12.18 37.831 13.4574C37.831 14.8394 36.9306 15.593 35.6531 15.593C34.4385 15.5932 33.5592 14.8394 33.5592 13.4574ZM24.1361 25.0994C23.5499 22.7752 22.1678 17.7079 21.6442 15.2581H21.6023C21.1625 17.7079 20.0528 21.8538 19.1733 25.0994H24.1361ZM18.3147 28.4917L16.6604 34.7734C16.6186 34.9408 16.5558 34.9826 16.3464 34.9826H13.2682C13.0587 34.9826 13.0168 34.9197 13.0587 34.6686L19.0058 13.8552C19.1105 13.4783 19.1732 13.1432 19.2151 12.1172C19.2151 11.9707 19.2779 11.9079 19.3827 11.9079H23.7801C23.9266 11.9079 23.9895 11.9498 24.0314 12.1172L30.6903 34.7104C30.7321 34.8778 30.6903 34.9826 30.5228 34.9826H27.0468C26.8792 34.9826 26.7744 34.9408 26.7327 34.7943L25.0155 28.4917H18.3147Z" fill="#FF7F18"/>
</svg>
