<svg width="62" height="62" viewBox="0 0 62 62" fill="none" xmlns="http://www.w3.org/2000/svg">
<path d="M52.0012 2.65869H24.0011C20.135 2.65869 17.001 5.7925 17.001 9.65842V37.657C17.001 41.5229 20.135 44.6567 24.0011 44.6567H52.0012C55.8674 44.6567 59.0013 41.5229 59.0013 37.657V9.65842C59.0013 5.7925 55.8674 2.65869 52.0012 2.65869Z" stroke="#159EEC" stroke-width="5" stroke-linecap="round" stroke-linejoin="round"/>
<path d="M38.0002 16.6572H10.0001C6.13396 16.6572 3 19.791 3 23.657V51.6555C3 55.5215 6.13396 58.6553 10.0001 58.6553H38.0002C41.8664 58.6553 45.0003 55.5215 45.0003 51.6555V23.657C45.0003 19.791 41.8664 16.6572 38.0002 16.6572Z" stroke="#159EEC" stroke-width="5" stroke-linecap="round" stroke-linejoin="round"/>
</svg>
