<svg width="76" height="76" viewBox="0 0 76 76" fill="none" xmlns="http://www.w3.org/2000/svg">
<path d="M22.1667 47.5H15.8333C12.3355 47.5 9.5 50.3355 9.5 53.8333V60.1667C9.5 63.6645 12.3355 66.5 15.8333 66.5H22.1667C25.6645 66.5 28.5 63.6645 28.5 60.1667V53.8333C28.5 50.3355 25.6645 47.5 22.1667 47.5Z" stroke="#159EEC" stroke-width="3.5" stroke-linecap="round" stroke-linejoin="round"/>
<path d="M60.1667 47.5H53.8333C50.3355 47.5 47.5 50.3355 47.5 53.8333V60.1667C47.5 63.6645 50.3355 66.5 53.8333 66.5H60.1667C63.6645 66.5 66.5 63.6645 66.5 60.1667V53.8333C66.5 50.3355 63.6645 47.5 60.1667 47.5Z" stroke="#159EEC" stroke-width="3.5" stroke-linecap="round" stroke-linejoin="round"/>
<path d="M41.1667 9.5H34.8333C31.3355 9.5 28.5 12.3355 28.5 15.8333V22.1667C28.5 25.6645 31.3355 28.5 34.8333 28.5H41.1667C44.6645 28.5 47.5 25.6645 47.5 22.1667V15.8333C47.5 12.3355 44.6645 9.5 41.1667 9.5Z" stroke="#159EEC" stroke-width="3.5" stroke-linecap="round" stroke-linejoin="round"/>
<path d="M19 47.5V44.3333C19 42.6536 19.6673 41.0427 20.855 39.855C22.0428 38.6673 23.6537 38 25.3333 38H50.6667C52.3463 38 53.9572 38.6673 55.145 39.855C56.3327 41.0427 57 42.6536 57 44.3333V47.5" stroke="#159EEC" stroke-width="3.5" stroke-linecap="round" stroke-linejoin="round"/>
<path d="M38 28.5V38" stroke="#159EEC" stroke-width="3.5" stroke-linecap="round" stroke-linejoin="round"/>
</svg>
