<svg width="76" height="76" viewBox="0 0 76 76" fill="none" xmlns="http://www.w3.org/2000/svg">
<path d="M38 66.5C34.2573 66.5 30.5513 65.7628 27.0935 64.3306C23.6357 62.8983 20.4939 60.799 17.8475 58.1525C15.2009 55.5061 13.1017 52.3643 11.6694 48.9065C10.2372 45.4487 9.5 41.7427 9.5 38C9.5 34.2573 10.2372 30.5513 11.6694 27.0935C13.1017 23.6357 15.2009 20.4939 17.8475 17.8475C20.4939 15.2009 23.6357 13.1017 27.0935 11.6694C30.5513 10.2372 34.2573 9.5 38 9.5C45.5586 9.5 52.8078 12.169 58.1525 16.9199C63.4973 21.6709 66.5 28.1146 66.5 34.8334C66.5 38.1927 64.9986 41.4146 62.3262 43.79C59.6539 46.1655 56.0294 47.5 52.25 47.5H44.3334C42.9206 47.4772 41.5408 47.9275 40.4134 48.7794C39.286 49.6311 38.4758 50.8354 38.1118 52.2006C37.7477 53.5659 37.8507 55.0137 38.4042 56.3137C38.9577 57.6137 39.9301 58.6913 41.1666 59.375C41.7989 59.9584 42.2325 60.7252 42.4065 61.5677C42.5805 62.4104 42.4862 63.2861 42.1368 64.0723C41.7874 64.8585 41.2004 65.5155 40.4585 65.9509C39.7165 66.3863 38.8568 66.5783 38 66.5Z" stroke="#159EEC" stroke-width="3.5" stroke-linecap="round" stroke-linejoin="round"/>
<path d="M23.7496 34.8332C24.624 34.8332 25.3328 34.1244 25.3328 33.2499C25.3328 32.3755 24.624 31.6666 23.7496 31.6666C22.875 31.6666 22.1662 32.3755 22.1662 33.2499C22.1662 34.1244 22.875 34.8332 23.7496 34.8332Z" fill="#159EEC" stroke="#159EEC" stroke-width="3.5" stroke-linecap="round" stroke-linejoin="round"/>
<path d="M37.9996 25.3332C38.874 25.3332 39.5828 24.6244 39.5828 23.7499C39.5828 22.8755 38.874 22.1666 37.9996 22.1666C37.125 22.1666 36.4162 22.8755 36.4162 23.7499C36.4162 24.6244 37.125 25.3332 37.9996 25.3332Z" fill="#159EEC" stroke="#159EEC" stroke-width="3.5" stroke-linecap="round" stroke-linejoin="round"/>
<path d="M52.2496 34.8332C53.124 34.8332 53.8328 34.1244 53.8328 33.2499C53.8328 32.3755 53.124 31.6666 52.2496 31.6666C51.375 31.6666 50.6662 32.3755 50.6662 33.2499C50.6662 34.1244 51.375 34.8332 52.2496 34.8332Z" fill="#159EEC" stroke="#159EEC" stroke-width="3.5" stroke-linecap="round" stroke-linejoin="round"/>
</svg>
