<svg width="76" height="76" viewBox="0 0 76 76" fill="none" xmlns="http://www.w3.org/2000/svg">
<path d="M18.9996 66.5001C22.4974 66.5001 25.3328 63.6645 25.3328 60.1668C25.3328 56.669 22.4974 53.8334 18.9996 53.8334C15.5017 53.8334 12.6662 56.669 12.6662 60.1668C12.6662 63.6645 15.5017 66.5001 18.9996 66.5001Z" stroke="#159EEC" stroke-width="3.5" stroke-linecap="round" stroke-linejoin="round"/>
<path d="M56.9996 22.1666C60.4974 22.1666 63.3328 19.3311 63.3328 15.8334C63.3328 12.3355 60.4974 9.5 56.9996 9.5C53.5017 9.5 50.6662 12.3355 50.6662 15.8334C50.6662 19.3311 53.5017 22.1666 56.9996 22.1666Z" stroke="#159EEC" stroke-width="3.5" stroke-linecap="round" stroke-linejoin="round"/>
<path d="M38.0004 60.1668H52.2504C55.19 60.1668 58.009 58.9991 60.0875 56.9206C62.1661 54.842 63.3338 52.0229 63.3338 49.0834C63.3338 46.1439 62.1661 43.3249 60.0875 41.2463C58.009 39.1678 55.19 38.0001 52.2504 38.0001H26.9172C23.9776 38.0001 21.1585 36.8324 19.0801 34.7538C17.0015 32.6754 15.8338 29.8562 15.8338 26.9168C15.8338 23.9773 17.0015 21.1583 19.0801 19.0797C21.1585 17.0012 23.9776 15.8334 26.9172 15.8334H38.0004" stroke="#159EEC" stroke-width="3.5" stroke-linecap="round" stroke-linejoin="round"/>
</svg>
