<svg width="76" height="76" viewBox="0 0 76 76" fill="none" xmlns="http://www.w3.org/2000/svg">
<path d="M38 38V38.0316" stroke="#159EEC" stroke-width="3.5" stroke-linecap="round" stroke-linejoin="round"/>
<path d="M60.3916 15.6082C58.0161 13.2327 53.3789 13.3137 47.4999 15.8332C41.6209 18.3528 34.9819 23.1045 29.0433 29.0433C23.1045 34.9818 18.3528 41.621 15.8332 47.4999C13.3137 53.3789 13.2327 58.0162 15.6082 60.3916C17.9836 62.767 22.621 62.6862 28.4999 60.1666C34.3789 57.6471 41.0179 52.8953 46.9566 46.9566C49.8971 44.0161 52.5772 40.8727 54.8438 37.7059C57.1103 34.539 58.919 31.4109 60.1666 28.4999C61.4141 25.5889 62.0761 22.9523 62.1147 20.7403C62.1533 18.5282 61.5679 16.7845 60.3916 15.6082Z" stroke="#159EEC" stroke-width="3.5" stroke-linecap="round" stroke-linejoin="round"/>
<path d="M15.6085 15.6084C13.2331 17.9839 13.314 22.6211 15.8336 28.5001C18.3532 34.3791 23.1049 41.0182 29.0435 46.9567C34.9822 52.8955 41.6213 57.6472 47.5003 60.1668C53.3793 62.6863 58.0165 62.7673 60.3919 60.3918C62.7674 58.0164 62.6864 53.379 60.1669 47.5001C57.6473 41.6211 52.8956 34.9821 46.957 29.0434C44.0165 26.1029 40.8731 23.4228 37.7062 21.1562C34.5394 18.8897 31.4112 17.081 28.5003 15.8334C25.5893 14.5859 22.9525 13.9239 20.7405 13.8853C18.5287 13.8467 16.7847 14.4321 15.6085 15.6084Z" stroke="#159EEC" stroke-width="3.5" stroke-linecap="round" stroke-linejoin="round"/>
</svg>
