<svg xmlns="http://www.w3.org/2000/svg" shape-rendering="geometricPrecision" text-rendering="geometricPrecision" image-rendering="optimizeQuality" fill-rule="evenodd" clip-rule="evenodd" viewBox="0 0 512 512.001"><g fill-rule="nonzero"><path fill="#4D4D4D" d="M256 0c70.684 0 134.69 28.664 181.013 74.988C483.337 121.311 512 185.317 512 256c0 70.684-28.663 134.69-74.987 181.013C390.69 483.337 326.684 512 256 512c-70.676 0-134.689-28.663-181.013-74.987C28.664 390.69 0 326.677 0 256c0-70.683 28.664-134.689 74.987-181.012C121.311 28.664 185.317 0 256 0z"/><path fill="#fff" d="M256.002 19.597c65.277 0 124.382 26.466 167.162 69.242 42.776 42.78 69.243 101.885 69.243 167.163 0 65.277-26.467 124.382-69.246 167.159-42.777 42.779-101.882 69.245-167.159 69.245-65.278 0-124.383-26.466-167.163-69.242-42.776-42.78-69.242-101.885-69.242-167.162 0-65.278 26.466-124.383 69.242-167.163 42.78-42.776 101.885-69.242 167.163-69.242z"/><path fill="#1EB53A" d="M56.259 339.402h399.485c-32.654 78.114-109.785 133.007-199.742 133.007-89.961 0-167.089-54.893-199.743-133.007z"/><path fill="#0099B5" d="M467.021 207.831H44.982C66.878 111.5 153.04 39.595 256.002 39.595c102.958 0 189.12 71.905 211.019 168.236z"/><path fill="#CE1126" d="M452.092 347.627H59.909a213.038 213.038 0 01-3.65-8.225h399.485a214.621 214.621 0 01-3.652 8.225zM47.034 199.61h417.935a217.374 217.374 0 012.052 8.221H44.982c.629-2.763 1.32-5.5 2.052-8.221z"/><path fill="#fff" d="M179.048 85.172a49.509 49.509 0 00-8.222-.685c-27.25 0-49.338 22.091-49.338 49.338 0 27.249 22.088 49.338 49.338 49.338 2.802 0 5.548-.235 8.222-.685-23.336-3.914-41.114-24.206-41.114-48.653 0-24.445 17.778-44.739 41.114-48.653zM281.587 91.305l-2.217-6.818-2.215 6.818h-7.17l5.801 4.217-2.215 6.816 5.799-4.213 5.801 4.213-2.217-6.819 5.801-4.214zM281.587 130.777l-2.217-6.819-2.215 6.819h-7.17l5.801 4.216-2.215 6.816 5.799-4.214 5.801 4.214-2.217-6.819 5.801-4.213zM242.118 130.777l-2.217-6.819-2.215 6.819h-7.17l5.801 4.216-2.215 6.816 5.799-4.214 5.801 4.214-2.217-6.819 5.801-4.213zM321.059 170.248l-2.218-6.819-2.215 6.819h-7.17l5.801 4.215-2.215 6.817 5.799-4.214 5.801 4.214-2.217-6.818 5.801-4.214zM281.587 170.248l-2.217-6.819-2.215 6.819h-7.17l5.801 4.215-2.215 6.817 5.799-4.214 5.801 4.214-2.217-6.818 5.801-4.214zM321.059 91.305l-2.218-6.818-2.215 6.818h-7.17l5.801 4.217-2.215 6.816 5.799-4.213 5.801 4.213-2.217-6.819 5.801-4.214zM321.059 130.777l-2.218-6.819-2.215 6.819h-7.17l5.801 4.216-2.215 6.816 5.799-4.214 5.801 4.214-2.217-6.819 5.801-4.213zM360.53 91.305l-2.218-6.818-2.215 6.818h-7.17l5.801 4.217-2.215 6.816 5.799-4.213 5.801 4.213-2.217-6.819 5.802-4.214zM360.53 130.777l-2.218-6.819-2.215 6.819h-7.17l5.801 4.216-2.215 6.816 5.799-4.214 5.801 4.214-2.217-6.819 5.802-4.213zM202.647 170.248l-2.217-6.819-2.215 6.819h-7.17l5.801 4.215-2.215 6.817 5.799-4.214 5.801 4.214-2.217-6.818 5.801-4.214zM242.118 170.248l-2.217-6.819-2.215 6.819h-7.17l5.801 4.215-2.215 6.817 5.799-4.214 5.801 4.214-2.217-6.818 5.801-4.214zM360.53 170.248l-2.218-6.819-2.215 6.819h-7.17l5.801 4.215-2.215 6.817 5.799-4.214 5.801 4.214-2.217-6.818 5.802-4.214z"/></g></svg>